<svg xmlns="http://www.w3.org/2000/svg" width="18" height="18" viewBox="0 0 18 18"><g id="Group_1" data-name="Group 1" transform="translate(-370.542 -383.312)"><path id="Path_2" data-name="Path 2" d="M447.713,465.637c-.337-.07-.68-.119-1.01-.213a4.872,4.872,0,1,1,6.214-5.474c.021.138.046.276.069.414v.809a1,1,0,0,0-.031.116,4.8,4.8,0,0,1-3.344,4.1,8.875,8.875,0,0,1-1.09.246Zm-3.348-4.883a3.748,3.748,0,1,0,3.745-3.739A3.75,3.75,0,0,0,444.365,460.754Z" transform="translate(-64.445 -64.325)" fill="#fff"></path><path id="Path_3" data-name="Path 3" d="M401.064,383.312a8.911,8.911,0,0,1,.965.246,3.738,3.738,0,1,1-1.768-.216.666.666,0,0,0,.1-.03Zm-.357,6.372a2.623,2.623,0,1,0-2.621-2.632A2.627,2.627,0,0,0,400.707,389.684Z" transform="translate(-23.421)" fill="#fff"></path><path id="Path_4" data-name="Path 4" d="M370.542,465.722c.046-.2.082-.411.139-.612a3.55,3.55,0,0,1,3.381-2.585c1.423-.009,2.847,0,4.27,0a.564.564,0,1,1,0,1.124H374.2a2.436,2.436,0,0,0-2.531,2.536q0,.887,0,1.775v.189h5.915a.564.564,0,1,1,.012,1.124q-1.362,0-2.724,0c-1.2,0-2.4-.008-3.6.005a.688.688,0,0,1-.726-.427Z" transform="translate(0 -70.211)" fill="#fff"></path><path id="Path_5" data-name="Path 5" d="M481.094,477.359c0-.34-.007-.68,0-1.019a.556.556,0,0,1,.47-.554.547.547,0,0,1,.615.357.86.86,0,0,1,.036.276c0,.521.005,1.043,0,1.564a.381.381,0,0,0,.124.308c.333.321.658.651.984.98a.565.565,0,1,1-.8.79c-.407-.405-.81-.814-1.219-1.217a.678.678,0,0,1-.213-.518c0-.322,0-.644,0-.967Z" transform="translate(-97.992 -81.963)" fill="#fff"></path></g></svg>